<?xml version="1.0" encoding="utf-8"?>
<!-- Generated by IcoMoon.io -->
<!DOCTYPE svg PUBLIC "-//W3C//DTD SVG 1.1//EN" "http://www.w3.org/Graphics/SVG/1.1/DTD/svg11.dtd">
<svg version="1.1" xmlns="http://www.w3.org/2000/svg" xmlns:xlink="http://www.w3.org/1999/xlink" width="448" height="448" viewBox="0 0 448 448">
<g id="icomoon-ignore">
</g>
<path fill="#000" d="M373.465 366.975c-1.656 0-3.103 0.569-4.333 1.71-1.309 1.218-1.964 2.751-1.964 4.589 0 1.773 0.608 3.266 1.823 4.479 1.213 1.213 2.706 1.82 4.477 1.82 1.713 0 3.187-0.59 4.41-1.774 1.26-1.226 1.892-2.733 1.889-4.525 0-1.738-0.615-3.223-1.846-4.45-1.233-1.236-2.718-1.849-4.456-1.849zM377.131 376.985c-1.012 1.025-2.234 1.536-3.666 1.536-1.435 0-2.66-0.508-3.675-1.529-1.022-1.017-1.531-2.257-1.531-3.717 0-1.405 0.502-2.622 1.505-3.648 1.023-1.050 2.257-1.574 3.702-1.574 1.432 0 2.656 0.527 3.675 1.574 1.009 1.030 1.514 2.249 1.514 3.648-0.003 1.441-0.509 2.679-1.525 3.71z"></path>
<path fill="#000" d="M373.602 370.981c0.312 0 0.6 0.084 0.863 0.249 0.314 0.178 0.52 0.525 0.615 1.043l1.607 0.025c-0.192-1.114-0.689-1.894-1.488-2.338-0.49-0.275-1.068-0.412-1.735-0.412-1.047 0-1.873 0.364-2.473 1.095-0.6 0.729-0.902 1.613-0.902 2.648 0 1.109 0.348 2.010 1.048 2.695 0.699 0.682 1.525 1.025 2.482 1.025 0.647 0 1.268-0.196 1.867-0.595 0.603-0.396 0.989-1.092 1.157-2.088h-1.564c-0.061 0.353-0.205 0.648-0.423 0.881s-0.542 0.35-0.971 0.35c-0.466 0-0.865-0.176-1.199-0.528-0.336-0.351-0.502-0.92-0.502-1.698 0-0.785 0.154-1.372 0.455-1.764 0.3-0.39 0.689-0.587 1.16-0.587z"></path>
<path fill="#000" d="M80.692 288.827l-0.009-0.017-0.015-0.021z"></path>
<path fill="#000" d="M329.713 163.743l0.124-0.058-0.155 0.028c0.010 0.011 0.021 0.019 0.031 0.030z"></path>
<path fill="#000" d="M329.792 163.425l-0.339 0.063c0.028 0.028 0.055 0.054 0.084 0.082l0.255-0.145z"></path>
<path fill="#000" d="M249.112 369.606l0.098 0.214 4.361 7.231c-3.317-1.264-13.743-14.228-13.743-14.228-0.744 1.338 2.455 7.528 2.455 7.528-3.942-4.39-7.556-10.73-9.373-14.13-0.394-0.694-0.811-1.496-1.229-2.389-0.624 6.784 3.391 11.993 3.391 11.993-10.625-10.998-13.119-26.639-13.682-31.85-0.588-3.132-0.991-5.973-1.231-7.974-0.296-0.623-0.575-1.239-0.838-1.852-2.912 6.744-0.892 13.486-0.892 13.486-2.203-5.864-3.454-11.436-3.968-16.702-0.303-3.158-0.343-6.206-0.158-9.144v-0.001c0.284-4.606 1.124-8.929 2.349-12.964-1.225 4.031-2.065 8.357-2.351 12.959-0.043-0.467-0.072-0.933-0.1-1.401-0.043-0.697-0.075-1.39-0.093-2.064-0.095-4.283 0.275-7.879 0.275-7.879h-0.001l-0.014 0.021c-0.319 0.42-0.6 0.863-0.868 1.316-0.070 0.118-0.142 0.239-0.206 0.358-0.251 0.46-0.487 0.921-0.689 1.398l-0.001 0.003-0.024 0.055c-0.145 0.342-0.279 0.684-0.402 1.027v0.003l-0.091 0.267c-0.040 0.129-0.081 0.254-0.123 0.382-0.131 0.415-0.248 0.833-0.358 1.239-0.006 0.031-0.012 0.057-0.021 0.085-0.108 0.418-0.202 0.833-0.281 1.236v0.007l-0.035 0.181-0.015 0.088c-0.067 0.358-0.122 0.708-0.172 1.044-0.003 0.030-0.009 0.055-0.012 0.087-0.043 0.318-0.084 0.62-0.113 0.911-0.003 0.025-0.006 0.046-0.009 0.070-0.033 0.291-0.055 0.566-0.076 0.829-0.003 0.021-0.004 0.040-0.004 0.064-0.018 0.255-0.033 0.497-0.045 0.715 0 0.022-0.003 0.042-0.003 0.064-0.009 0.214-0.021 0.405-0.021 0.575-0.003 0.025-0.003 0.043-0.003 0.064-0.006 0.163-0.006 0.303-0.007 0.423 0.001 0.021 0.001 0.040 0.001 0.061 0 0.097 0 0.172 0.003 0.236 0 0.027 0 0.052 0 0.073 0 0.061 0.003 0.095 0.003 0.095-2.809-11.591 3.65-26.207 3.65-26.207l-0.031 0.030c-0.373 0.318-0.727 0.648-1.069 0.983-0.103 0.101-0.206 0.21-0.308 0.311-0.251 0.255-0.493 0.518-0.726 0.78-0.095 0.108-0.194 0.215-0.285 0.322-0.291 0.345-0.574 0.691-0.839 1.039-0.327 0.426-0.63 0.857-0.918 1.289l-0.003 0.006-0.108 0.173c-0.14 0.212-0.263 0.416-0.39 0.626-0.337 0.551-0.654 1.101-0.935 1.64-0.007 0.012-0.017 0.025-0.024 0.039v0.001c-0.189 0.36-0.36 0.717-0.525 1.068l-0.098 0.215c-0.155 0.342-0.303 0.681-0.438 1.008l-0.058 0.14c-0.126 0.303-0.241 0.599-0.343 0.884l-0.058 0.148c-0.111 0.301-0.213 0.596-0.306 0.878l-0.055 0.167c-0.088 0.276-0.175 0.542-0.245 0.79l-0.003 0.003c-0.073 0.254-0.137 0.484-0.196 0.7l-0.035 0.133c-0.052 0.202-0.1 0.387-0.137 0.546l-0.021 0.090c-0.033 0.14-0.064 0.267-0.085 0.375l-0.015 0.058c-0.022 0.111-0.040 0.2-0.052 0.264l-0.009 0.052-0.015 0.073c-0.496-7.093 1.117-13.041 3.963-18.010 0.355-0.617 0.732-1.225 1.123-1.814 0.4-0.599 0.82-1.178 1.251-1.747 0.131-0.167 0.263-0.336 0.394-0.502 0.329-0.413 0.665-0.823 1.007-1.22 0.133-0.155 0.267-0.312 0.405-0.466 0.098-0.113 0.21-0.221 0.312-0.335 0.905-0.99 1.844-1.935 2.83-2.822 0.579-0.52 1.171-1.023 1.771-1.505 4.804-3.889 10.224-6.701 14.998-8.679 1.789-0.741 3.489-1.365 5.026-1.885 1.372-0.463 2.613-0.839 3.692-1.144 0.711-0.202 1.353-0.371 1.9-0.509 0.221-0.151 0.364-0.239 0.371-0.243-3.103-0.989-6.088-2.116-8.95-3.378-7.355-3.424-17.508-9.802-23.683-20.472-1.622-2.806-2.988-5.894-3.935-9.323 0-0.001 0-0.004 0-0.006-0.123-0.445-0.223-0.913-0.335-1.369-0.119-0.478-0.254-0.944-0.35-1.441-0.27-1.343-0.463-2.695-0.603-4.049-0.052-0.487-0.070-0.969-0.102-1.456-0.010-0.172-0.025-0.346-0.035-0.517-0.113-1.901-0.129-3.808-0.006-5.706 0.046-0.707 0.118-1.41 0.196-2.114 0.145-1.304 0.336-2.601 0.587-3.892 0.236-1.235 0.521-2.461 0.854-3.675 0.032-0.115 0.057-0.233 0.088-0.348 0.301-1.078 0.654-2.143 1.025-3.199 0.225-0.627 0.462-1.246 0.709-1.862 0.847-2.118 1.82-4.183 2.944-6.172 1.060-1.879 2.24-3.693 3.529-5.422 3.869-5.195 8.739-9.649 14.405-12.911 0.724-0.322 1.441-0.612 2.16-0.878 0.224-0.087 0.448-0.157 0.671-0.234 0.493-0.175 0.983-0.342 1.474-0.491 0.261-0.081 0.52-0.152 0.778-0.224 0.457-0.129 0.911-0.249 1.362-0.357 0.261-0.067 0.524-0.124 0.79-0.182 0.459-0.1 0.908-0.187 1.368-0.272 0.241-0.043 0.488-0.090 0.73-0.126l0.202-0.028c0.447-0.069 0.892-0.129 1.335-0.181 0.181-0.019 0.358-0.045 0.536-0.063 0.687-0.072 1.371-0.126 2.052-0.155 0.142-0.011 0.285-0.009 0.426-0.014 0.536-0.022 1.074-0.033 1.601-0.035 0.119 0 0.242 0.004 0.358 0.006 0.129 0.003 0.257 0.004 0.385 0.006 0.426 0.006 0.848 0.017 1.28 0.035 0.272 0.012 0.539 0.027 0.808 0.045 0.281 0.017 0.561 0.039 0.839 0.060 0.126 0.011 0.248 0.018 0.371 0.028 0.269 0.025 0.541 0.046 0.814 0.075 0.406 0.040 0.817 0.088 1.223 0.14l0.052 0.006c0.234 0.028 0.473 0.052 0.711 0.085 0.466 0.063 0.933 0.134 1.401 0.209 0.185 0.028 0.373 0.054 0.56 0.085 0.63 0.106 1.26 0.217 1.886 0.335 0.272 0.052 0.538 0.106 0.806 0.16l0.101 0.019 0.152 0.032c0.291 0.058 0.588 0.116 0.879 0.175 0.301 0.069 0.608 0.134 0.914 0.202 0.196 0.039 0.393 0.081 0.585 0.122l-0.014 0.001c0.279 0.060 0.541 0.129 0.816 0.191 1.38 0.314 2.76 0.635 4.125 0.968 0.847 0.207 1.695 0.411 2.54 0.612 2.015 0.487 4.014 0.948 6.005 1.335 0.269 0.052 0.538 0.094 0.811 0.145 0.766 0.14 1.529 0.275 2.292 0.39 2.279 0.34 4.552 0.524 6.814 0.514 1.392-0.007 2.773-0.067 4.158-0.256 0.824-0.111 1.626-0.276 2.428-0.483l0.199-0.046c0.759-0.199 1.505-0.445 2.24-0.715l0.294-0.111c0.712-0.269 1.417-0.574 2.107-0.903l0.34-0.158c0.682-0.336 1.359-0.684 2.023-1.059l0.346-0.194c0.66-0.375 1.316-0.772 1.97-1.177l0.329-0.206c0.651-0.418 1.298-0.838 1.94-1.268l0.306-0.21c0.636-0.43 1.269-0.863 1.89-1.296 0.742-0.515 1.475-1.032 2.208-1.536h-0.003l0.061-0.037 0.015-0.012c0.394-0.272 0.785-0.542 1.175-0.808l0.207-0.139c0.343-0.234 0.691-0.466 1.035-0.69l0.339-0.221c0.306-0.199 0.612-0.394 0.915-0.584l0.397-0.245c0.291-0.181 0.584-0.355 0.875-0.523l0.403-0.236c0.297-0.166 0.593-0.329 0.892-0.484l0.376-0.203c0.327-0.167 0.654-0.324 0.981-0.476l0.281-0.133c0.839-0.382 1.69-0.708 2.54-0.962l0.281-0.075c0.324-0.091 0.648-0.176 0.973-0.243 0.14-0.030 0.282-0.052 0.423-0.077 0.166-0.031 0.327-0.049 0.487-0.077l0.353-0.052c0.158-0.017 0.324-0.030 0.483-0.043 0.261-0.019 0.524-0.033 0.79-0.037 0.17-0.004 0.342 0 0.517 0.004 0.259 0.010 0.518 0.021 0.775 0.048 0.178 0.015 0.353 0.035 0.529 0.060 0.259 0.037 0.515 0.084 0.778 0.139 0.175 0.035 0.355 0.073 0.53 0.116 0.269 0.070 0.539 0.155 0.805 0.242 0.172 0.058 0.342 0.109 0.514 0.175 0.299 0.111 0.599 0.245 0.895 0.384 0.149 0.066 0.296 0.121 0.444 0.199 0.448 0.224 0.895 0.478 1.348 0.76 0.088 0.077 0.17 0.172 0.257 0.252l-0.010-0.057c-0.133-0.653-0.288-1.368-0.497-2.216l-0.405-1.514c-0.158-0.569-0.342-1.183-0.548-1.819-0.049-0.163-0.105-0.319-0.16-0.478l-0.052-0.155c-0.151-0.457-0.303-0.9-0.472-1.365l-0.311-0.802c-0.163-0.433-0.339-0.861-0.527-1.302l-0.387-0.884c-0.194-0.421-0.399-0.856-0.614-1.295-0.181-0.364-0.309-0.623-0.448-0.881-0.236-0.448-0.485-0.884-0.739-1.319l-0.505-0.856c-0.284-0.452-0.6-0.913-0.921-1.371l-0.214-0.306c-0.088-0.129-0.176-0.259-0.27-0.385-0.073-0.097-0.155-0.194-0.236-0.29l-0.342-0.423c-0.327-0.417-0.653-0.835-1.012-1.226l-0.245-0.238c-0.611-0.653-1.144-1.168-1.656-1.608-0.358-0.306-0.626-0.514-0.89-0.715l0.325-0.69-0.448 0.597c-0.228-0.172-0.466-0.337-0.705-0.499l-0.1-0.070-0.003 0.003c-0.098-0.073-0.415-0.282-1.22-0.641l-0.694-0.293c-0.978-0.391-2.645-0.993-4.997-1.617l-0.372-0.093c-1.852-0.481-3.724-0.872-5.579-1.169-0.669-0.106-1.347-0.205-2.038-0.287-0.182-0.022-0.366-0.037-0.548-0.052l-0.738-0.067c-1.807-0.172-3.218-0.249-4.543-0.249l-0.296 0.001c-2.288 0.025-4.316 0.218-6.121 0.577l-1.652 0.329 0.866-1.446c0.393-0.654 1.205-1.359 2.471-2.143l-0.387 0.081c-4.686 0.998-9.211 2.71-11.49 3.642-0.35 0.142-0.655 0.27-0.924 0.385l-0.355 0.119-2.567 0.317 1.141-1.428c1.384-2.572 3.318-4.292 5.076-5.413-3.601 0.699-7.196 2.033-10.717 3.978-2.458 1.356-4.816 2.96-7.008 4.765l-0.142 0.116-1.827 0.382c-6.808 1.452-12.932 3.021-18.726 4.799-2.593 0.796-5.135 1.641-7.559 2.51-1.876 0.673-3.833 1.426-5.985 2.303-1.434 0.584-2.867 1.195-4.301 1.832-11.529 5.148-21.265 11.494-28.941 18.865l-0.421 0.393c-0.17 0.157-0.342 0.312-0.505 0.476-0.7 0.697-1.379 1.428-2.053 2.155l-0.514 0.539c-0.163 0.167-0.326 0.333-0.483 0.508-0.207 0.23-0.405 0.47-0.603 0.709l-0.436 0.521c-1.762 2.053-3.239 3.945-4.515 5.785-1.025 1.471-2.026 3.049-2.981 4.692l-0.124 0.205c-1.976 3.429-3.674 7.084-5.041 10.85-0.707 1.944-1.343 3.966-1.89 6.009-0.143 0.545-0.288 1.096-0.424 1.655l-0.079 0.303c-0.508 2.129-0.95 4.48-1.311 6.972l-0.206 1.426c-0.151 1.197-0.269 2.422-0.369 3.661-0.093 1.135-0.161 2.286-0.215 3.454l-0.035 0.778c-0.018 0.4-0.036 0.799-0.045 1.204-0.011 0.525-0.009 1.062-0.009 1.599l-0.004 0.892c0.004 1.305 0.028 2.631 0.087 3.983l0.014 0.202c0.058 1.361 0.155 2.734 0.27 4.119 0.049 0.579 0.098 1.153 0.155 1.735l0.143 1.405c0.095 0.863 0.205 1.735 0.322 2.618 0.227-1.395 0.545-2.728 0.947-3.983 0.142-0.441 0.3-0.882 0.47-1.327 0.039-0.109 0.091-0.23 0.142-0.353l0.088-0.215c0.391-0.942 0.778-1.75 1.192-2.482l1.020-1.81 0.366 2.044c0.1 0.56 0.209 1.116 0.321 1.677l0.046 0.595-0.012 1.123c-0.006 0.856-0.006 1.823 0.003 2.877 0.012 1.054 0.031 2.188 0.070 3.391 0.111 3.619 0.336 6.929 0.672 9.902 0.314-2.171 0.827-4.090 1.663-4.65l0.968-0.647 0.184 1.15c0.025 0.161 2.406 14.96 4.773 22.339l-0.285-7.537 0.206-3.948 1.262 2.587c1.959 4.015 4.198 8.146 6.654 12.277 0.694 1.16 1.399 2.333 2.137 3.514l0.336 0.536-0.476 0.42c-4.995 4.39-9.248 10.328-12.298 17.166-0.509 1.144-0.986 2.315-1.416 3.481-0.248 0.675-0.484 1.366-0.707 2.059-0.073 0.221-0.142 0.441-0.207 0.654-0.154 0.496-0.301 0.986-0.444 1.484l-0.206 0.763c-0.133 0.497-0.26 0.994-0.378 1.498-0.081 0.329-0.126 0.512-0.164 0.699-0.166 0.735-0.319 1.46-0.455 2.195-0.145 0.802-0.261 1.547-0.366 2.295-0.033 0.241-0.063 0.48-0.091 0.718-0.070 0.542-0.13 1.081-0.182 1.616l-0.075 0.827c-0.046 0.541-0.081 1.089-0.109 1.634-0.018 0.291-0.031 0.515-0.036 0.739-0.033 0.796-0.052 1.593-0.049 2.395 0.003 0.723 0.021 1.341 0.042 1.959 0.027 0.623 0.063 1.25 0.109 1.88l0.027 0.43c0.060 0.747 0.14 1.513 0.234 2.283l0.105 0.741c0.081 0.584 0.149 1.083 0.233 1.582l0.157 0.897c0.094 0.506 0.184 0.978 0.282 1.456l0.209 0.95c0.108 0.467 0.22 0.945 0.342 1.423 0.082 0.321 0.164 0.64 0.254 0.959 0.133 0.481 0.269 0.963 0.415 1.447 0.095 0.321 0.191 0.637 0.291 0.956 0.16 0.496 0.332 0.999 0.503 1.498l0.315 0.897c0.203 0.553 0.418 1.103 0.644 1.658l0.296 0.748c0.675 1.622 1.434 3.249 2.254 4.834l0.393 0.727c0.297 0.554 0.606 1.123 0.931 1.689 0.167 0.291 0.343 0.588 0.521 0.884 0.306 0.515 0.611 1.027 0.933 1.536 0.164 0.266 0.333 0.525 0.5 0.785l0.111 0.17c0.319 0.488 0.648 0.983 0.984 1.474l0.683 0.978c0.343 0.488 0.702 0.973 1.066 1.459 0.243 0.33 0.48 0.65 0.724 0.969 0.387 0.496 0.781 0.994 1.192 1.492 0.251 0.317 0.494 0.621 0.744 0.923 0.176 0.21 0.354 0.42 0.533 0.63-1.413-3.578-2.070-7.141-1.953-10.603l0.072-2.124 1.272 1.701c0.282 0.379 0.57 0.748 0.857 1.119l0.478 0.618c0.597 1.183 1.257 2.492 2.026 3.965l0.808 1.52c1.344 2.476 2.611 4.674 3.866 6.711 0.617 0.999 1.226 1.952 1.829 2.855-0.261-0.749-0.493-1.489-0.655-2.153-0.272-1.109-0.337-1.887-0.206-2.445l0.311-1.317 2.052 2.093c0.424 0.554 0.881 1.16 1.392 1.834l2.091 2.725c4.198 5.394 7.525 9.314 9.901 11.666l-4.401-7.885 3.023 2.46c6.037 4.913 26.371 11.833 52.67 11.833 7.644 0 15.127-0.603 22.391-1.765-18.329 1.898-33.591-2.439-45.409-11.007z"></path>
<path fill="#000" d="M323.885 221.858c0.493-1.991 0.735-4.377 0.578-6.962-0.17-2.828-0.765-5.379-1.61-7.377-0.299-1.138-2.077-4.393-4.308-4.214-2.879 0.175-4.889 5.635-4.504 12.202 0.055 0.957 0.166 1.877 0.312 2.763 4.471 0.105 7.507 1.525 9.532 3.588z"></path>
<path fill="#000" d="M261.75 187.906c-0.781-0.192-1.567-0.33-2.341-0.426-0.291-0.036-0.581-0.063-0.872-0.088-3.981-0.346-7.423 0.326-7.423 0.326-0.738 0.169-1.447 0.36-2.129 0.569-5.408 1.641-9.175 4.456-11.803 7.706-2.129 2.63-3.515 5.542-4.398 8.354-0.079 0.248-0.149 0.494-0.218 0.739-0.207 0.729-0.388 1.445-0.538 2.147-0.499 2.364-0.691 4.544-0.747 6.269-0.067 2.359 0.116 3.88 0.116 3.88 0.939-2.061 1.925-3.952 2.94-5.721 2.521-4.387 5.252-7.922 8.010-10.763 5.379-5.531 10.857-8.451 15.099-9.986 4.585-1.658 7.729-1.715 7.729-1.715-1.074-0.582-2.244-0.999-3.426-1.292z"></path>
<path fill="#000" d="M327.383 179.186c-2.053-1.411-4.888-2.147-8.817-1.343 0 0-4.664 1.101-7.391 4.151 0 0 8.128-3.471 16.733 2.645 0.784 0.557 1.571 1.202 2.356 1.929 0.802 0.742 1.601 1.567 2.397 2.503 0 0-0.342-3.748-2.476-6.979-0.129-0.203-0.272-0.403-0.417-0.596l-0.181-0.238c-0.609-0.769-1.337-1.478-2.205-2.074z"></path>
<path fill="#000" d="M267.814 213.395c-3.825 0.472-6.081 7.927-5.049 16.646 0.52 4.389 1.778 8.27 3.391 10.976 3.115-0.965 6.49-1.85 10.104-2.669 0.629-2.815 0.784-6.3 0.339-10.019-1.027-8.724-4.965-15.408-8.785-14.935z"></path>
<path fill="#000" d="M375.723 265.701v-0.039l-0.126 0.181c0.021-0.017 0.037-0.030 0.055-0.043l0.070-0.098z"></path>
<path fill="#000" d="M391.342 310.17c-0.024-0.632-0.079-1.235-0.149-1.801-0.046-0.376-0.116-0.749-0.21-1.113-0.157-0.839-0.35-1.676-0.633-2.467l-0.006-0.017c-0.582-1.649-1.478-3.23-2.636-4.564-1.151-1.334-2.527-2.387-3.905-3.114l-0.042-0.028c-1.47-0.77-2.913-1.199-4.223-1.45-0.385-0.070-0.744-0.105-1.102-0.147 1.674-7.175-0.421-12.65-1.775-15.213 0.105-0.1 0.218-0.202 0.315-0.296 1.788-1.726 3.308-3.381 4.585-5.040l0.242-0.332c1.029-1.474 1.707-2.987 2.142-4.374 0.371-1.193 0.551-2.272 0.658-3.255l0.012 0.003 0.012-0.061 0.006-0.14 0.040-0.303h-0.024l0.018-0.342h0.009l0.006-0.203c0.006-0.203 0.012-0.409 0.012-0.632 0.012-0.405 0.009-0.829-0.012-1.289-0.097-2.221-0.502-5.109-1.959-8.237-0.729-1.557-1.735-3.158-3.078-4.643-1.335-1.481-3-2.831-4.911-3.899l0.012 0.004c-0.14-0.077-0.248-0.152-0.376-0.225-3.972-5.848-8.511-10.381-12.537-13.822-2.085-1.783-4.033-3.272-5.693-4.489-1.647-1.208-3.030-2.161-3.804-2.733l0.009 0.006c-1.773-1.301-3.085-2.080-3.715-2.434-1.45-0.881-2.528-1.586-3.179-2.076-0.508-0.385-0.756-0.632-0.848-0.732l-0.049-0.064c-0.009-0.014-0.064-0.123-0.14-0.515-0.082-0.391-0.169-1.059-0.207-2.023-0.067-1.52-0.015-3.742 0.152-6.678 0.266-4.721 0.802-11.236 1.356-20.067 0.184-2.807 0.21-5.452 0.108-7.945-0.166-3.999-0.683-7.62-1.52-10.903l-0.003-0.018c-0.184-0.747-0.399-1.48-0.621-2.203l-0.004-0.007-0.004-0.009c-0.166-0.538-0.317-0.945-0.405-1.205l0.006 0.015c-0.169-0.48-0.343-0.956-0.536-1.438l-0.006-0.021c-0.095-0.235-0.217-0.538-0.376-0.914l-0.003-0.009-0.003-0.006c-0.303-0.712-0.648-1.475-1.083-2.3l-0.116-0.218-0.218-0.39-0.155-0.261c-0.805-1.325-1.656-2.533-2.546-3.657-0.449-2.030-1.229-5.034-2.524-8.448-1.151-3.005-2.691-6.338-4.882-9.625-0.762-1.134-1.625-2.257-2.573-3.354l0.315-0.327c0.444-0.465 10.967-11.485 19.207-25.79 15.359-26.66 10.246-42.96 3.257-51.938l-0.2-0.251-0.21-0.236c-6.742-7.492-15.907-12.005-27.248-13.413-23.487-2.921-50.046 8.603-57.008 11.881l-12.708-14.036c-1.12-1.229-2.362-2.33-3.696-3.294-1.338-0.966-2.776-1.801-4.284-2.5-3.024-1.402-6.344-2.282-9.875-2.721-7.084-0.872-15.036-0.025-23.687 2.194-12.965 3.343-27.528 9.82-42.747 18.95-15.214 9.133-31.066 20.932-46.458 34.969-18.807 17.16-34.344 35.297-45.663 52.51-5.655 8.609-10.261 16.988-13.682 24.936-3.415 7.952-5.661 15.468-6.527 22.425-0.629 5.057-0.529 9.834 0.487 14.238 0.444 1.926 1.080 3.776 1.897 5.53 1.047 2.254 2.4 4.343 4.086 6.191l0.040 0.045 14.729 15.424-0.085 0.148c-0.16 0.279-0.309 0.561-0.466 0.841-0.227 0.418-0.455 0.839-0.673 1.26-0.147 0.288-0.288 0.579-0.429 0.869-0.21 0.431-0.413 0.86-0.615 1.298-0.134 0.291-0.263 0.588-0.39 0.884-0.194 0.444-0.381 0.89-0.559 1.338-0.118 0.296-0.233 0.591-0.35 0.893-0.172 0.457-0.336 0.921-0.499 1.384-0.102 0.299-0.207 0.599-0.303 0.902-0.155 0.472-0.296 0.95-0.438 1.426-0.040 0.133-0.085 0.261-0.123 0.396-0.048 0.167-0.093 0.342-0.14 0.511-0.137 0.49-0.257 0.986-0.378 1.478-0.072 0.296-0.149 0.593-0.218 0.897-0.046 0.218-0.093 0.433-0.137 0.653-0.064 0.306-0.119 0.612-0.181 0.921-0.052 0.281-0.113 0.557-0.161 0.838-0.109 0.624-0.2 1.257-0.287 1.886-0.024 0.187-0.058 0.368-0.082 0.556l-0.006 0.052-0.015 0.166c-0.049 0.411-0.085 0.826-0.129 1.243-0.061 0.653-0.113 1.304-0.149 1.961-0.021 0.287-0.033 0.581-0.046 0.874-0.009 0.224-0.027 0.448-0.035 0.676-0.012 0.459-0.006 0.921-0.009 1.389 0 0.278-0.003 0.554 0 0.838 0.003 0.166-0.003 0.333 0 0.499v0.093c0.009 0.299 0.021 0.599 0.030 0.896 0.015 0.33 0.043 0.651 0.064 0.972 0.015 0.242 0.021 0.484 0.035 0.723 0.021 0.214 0.031 0.375 0.046 0.514 0.027 0.305 0.055 0.614 0.088 0.917 0.032 0.35 0.070 0.723 0.123 1.151l0.003 0.036v-0.006c0.024 0.166 0.040 0.278 0.058 0.406 0.046 0.345 0.102 0.693 0.155 1.036 0.040 0.309 0.095 0.654 0.166 1.089 0.035 0.172 0.061 0.318 0.088 0.447 0.037 0.21 0.082 0.415 0.123 0.621l0.003 0.018 0.006 0.028 0.055 0.264c0.052 0.285 0.126 0.647 0.233 1.137 0.032 0.131 0.052 0.218 0.079 0.33 0.079 0.312 0.137 0.545 0.181 0.711l0.076 0.318c0.027 0.101 0.052 0.2 0.088 0.345l0.076 0.291 0.067 0.243 0.055 0.218c0.032 0.111 0.055 0.187 0.087 0.287l0.081 0.299c0.070 0.233 0.149 0.466 0.218 0.7 0.085 0.272 0.192 0.635 0.35 1.12l-0.027-0.079 0.030 0.091c0.037 0.116 0.067 0.192 0.102 0.29 0.14 0.403 0.254 0.712 0.309 0.872l0.009 0.018v0.003c0.093 0.264 0.23 0.653 0.423 1.153l0.003 0.009 0.017 0.046-0.007-0.025 0.085 0.209c0.123 0.309 0.22 0.551 0.3 0.735l0.095 0.234 0.015 0.036c0.049 0.119 0.116 0.281 0.196 0.466 0.073 0.175 0.16 0.379 0.263 0.614l-0.009-0.019 0.105 0.224c0.095 0.217 0.187 0.416 0.269 0.584 0.077 0.154 0.142 0.293 0.196 0.405l0.009 0.021c0.123 0.259 0.273 0.59 0.481 1.001l0.018 0.037 0.012 0.024 0.088 0.172c0.091 0.167 0.175 0.336 0.251 0.476 0.108 0.206 0.207 0.379 0.282 0.529l0.015 0.031c0.113 0.209 0.272 0.509 0.487 0.9l0.015 0.025 0.015 0.031 0.091 0.151c0.088 0.155 0.172 0.306 0.254 0.441 0.137 0.231 0.266 0.441 0.366 0.615l0.032 0.048 0.006 0.015c0.105 0.166 0.266 0.438 0.49 0.799l0.021 0.031 0.064 0.105c0.111 0.172 0.218 0.342 0.318 0.491 0.16 0.238 0.303 0.455 0.426 0.641l-0.021-0.031c0.134 0.2 0.318 0.479 0.569 0.838l0.021 0.031 0.003 0.006 0.012 0.018 0.021 0.030-0.006-0.006 0.009 0.015h0.003c0.119 0.169 0.239 0.337 0.358 0.505 0.166 0.23 0.324 0.445 0.465 0.633l-0.009-0.015c0.134 0.181 0.303 0.409 0.508 0.679l0.043 0.058c0.155 0.202 0.3 0.385 0.444 0.566 0.187 0.233 0.364 0.454 0.53 0.654l0.055 0.070c0.113 0.139 0.245 0.3 0.423 0.509l0.079 0.094-0.003 0.001 0.027 0.031 0.046 0.048c0.266 0.312 0.505 0.582 0.744 0.847l0.254 0.291v-0.003l0.003 0.006 0.010 0.012 0.019 0.019-0.006-0.004c0.119 0.131 0.266 0.297 0.447 0.488l0.055 0.064 0.003 0.004 0.009 0.007 0.035 0.036-0.009-0.009c0.288 0.309 0.57 0.596 0.854 0.887 0.116 0.116 0.233 0.248 0.35 0.361l0.015 0.015c0.061 0.058 0.199 0.202 0.42 0.423l0.043 0.037 0.127 0.134c0.342 0.336 0.699 0.655 1.051 0.981l0.082 0.080 0.024 0.021 0.021 0.021c0.091 0.082 0.236 0.217 0.447 0.405l0.024 0.024c0.452 0.4 0.906 0.79 1.359 1.166l0.027 0.022 0.257 0.212 0.175 0.145-0.006-0.007 0.263 0.209c0.382 0.306 0.759 0.602 1.12 0.879l0.102 0.082 0.046 0.033c0.14 0.103 0.241 0.178 0.297 0.223l0.070 0.052 0.055 0.037c0.105 0.076 0.21 0.149 0.318 0.227 0.321 0.23 0.642 0.459 0.965 0.679l0.303 0.215 0.336 0.228 0.015 0.006 0.172 0.111c0.327 0.218 0.676 0.438 1.023 0.657 0.182 0.116 0.348 0.227 0.538 0.342l0.294 0.178 0.166 0.095 0.108 0.064c0.539 0.324 1.047 0.617 1.511 0.872l0.043 0.024 0.288 0.155 0.021 0.015c0.642 0.342 1.251 0.655 1.829 0.944l0.098 0.046 0.315 0.152 0.003-0.003c0.312 0.152 0.615 0.281 0.924 0.42 0.144 0.067 0.291 0.137 0.438 0.202 0.175 0.079 0.358 0.169 0.533 0.245l0.149 0.064 0.113 0.051c0.3 0.129 0.595 0.234 0.89 0.355l0.152 0.057c0.333 0.134 0.665 0.276 0.998 0.402l0.079 0.030 0.245 0.088c0.155 0.055 0.315 0.105 0.472 0.161l0.147 0.048c0.475 0.169 0.951 0.342 1.435 0.496l0.113 0.035 0.040 0.015 0.018 0.009c0.744 0.23 1.488 0.447 2.228 0.647l0.155 0.039-0.043-0.012c0.655 0.172 1.301 0.321 1.94 0.466h0.009l0.236 0.063 0.248 0.052c0.609 0.133 1.231 0.239 1.856 0.346l0.176 0.048 0.441 0.067c0.376 0.061 0.753 0.111 1.129 0.161 0.058 0.155 0.113 0.309 0.163 0.442l0.006 0.021c1.029 2.81 2.145 5.603 3.342 8.375 17.666 48.886 66.5 86.782 122.227 93.713 55.728 6.929 115.213-30.11 139.449-80.162 1.044-1.914 1.998-3.794 2.867-5.615 2.403-2.473 4.27-5.040 5.509-7.761 1.478-3.19 1.977-6.556 1.838-9.31zM150.204 225.944l-0.449 0.816c-0.387 0.689-1.027 1.831-1.774 3.175l-5.867 10.949c-0.209 0.451-0.333 0.729-0.415 0.914l-0.090 0.199c-0.223 0.529-0.412 0.996-0.603 1.465l-0.672 1.65c-0.393 1.022-0.735 1.958-1.069 2.908l-0.054 0.148c-0.39 1.111-0.757 2.255-1.102 3.412l-0.287 1.011c-0.187 0.644-0.373 1.283-0.543 1.937l-0.048 0.163c-0.058 0.224-0.113 0.467-0.169 0.712l-0.575 2.467-0.033 0.152-0.441 2.313c-0.035 0.175-0.070 0.35-0.098 0.529-0.007 0.043-0.014 0.088-0.021 0.133 0.1-0.224 0.205-0.451 0.314-0.676l0.069-0.133 0.13-0.246c0.040-0.115 0.17-0.348 0.301-0.585l0.371-0.684c0.324-0.553 0.617-1.011 0.929-1.447l0.152-0.193c0.236-0.327 0.512-0.658 0.796-0.976l0.254-0.281c0.209-0.218 0.42-0.406 0.63-0.593l2.524-2.286-1.323 4.57c-0.049 0.236-0.106 0.485-0.169 0.756l-0.784 3.648c-0.167 0.796-0.339 1.641-0.515 2.53-0.192 0.983-0.394 2.022-0.588 3.096l-0.321 1.786c-0.238 1.355-0.466 2.758-0.684 4.172l-0.066 0.442c-0.124 0.832-0.241 1.665-0.35 2.495 0.192-0.408 0.393-0.809 0.596-1.192 0.196-0.368 0.393-0.717 0.591-1.030 0.675-1.080 1.271-1.67 1.871-1.858l0.866-0.27 0.164 1.489c0.257 2.731 0.618 5.39 1.074 7.898l0.108 0.591-0.031 0.014c0.113 0.637 0.23 1.278 0.351 1.913 1.113 5.921 2.443 11.826 2.457 11.884l0.106 0.472-0.388 0.29c-2.049 1.532-5.51 3.076-9.496 4.235-1.277 0.371-2.627 0.705-4.008 0.99-0.877 0.184-1.753 0.34-2.636 0.469-0.994 0.151-1.995 0.269-2.973 0.346-0.718 0.060-1.435 0.105-2.135 0.123l-0.447 0.003c-0.372 0-0.744-0.006-1.116-0.012-2.134-0.027-4.289-0.212-6.401-0.549-0.708-0.116-1.386-0.245-2.052-0.385l-0.194-0.067c-0.542-0.095-1.196-0.252-1.849-0.423-0.301-0.082-0.505-0.142-0.707-0.203l-0.678-0.196c-0.205-0.057-0.409-0.113-0.611-0.178-0.741-0.236-1.343-0.448-1.949-0.671l-0.147-0.049c-0.603-0.231-1.183-0.46-1.756-0.699l-0.213-0.095c-0.556-0.239-1.113-0.491-1.665-0.762l-0.218-0.103c-0.543-0.269-1.074-0.535-1.599-0.82l-0.267-0.151c-0.503-0.279-1.009-0.561-1.504-0.865l-0.294-0.178c-0.483-0.294-0.954-0.6-1.42-0.913l-0.333-0.224c-0.449-0.305-0.892-0.618-1.33-0.938l-0.353-0.266c-0.434-0.332-0.851-0.654-1.262-0.99l-0.384-0.319c-0.394-0.326-0.784-0.657-1.165-0.998l-0.4-0.363c-0.43-0.399-0.766-0.712-1.088-1.030l-0.42-0.416c-0.345-0.345-0.681-0.693-1.005-1.047l-0.4-0.439c-0.351-0.388-0.657-0.735-0.954-1.087-0.152-0.172-0.303-0.361-0.452-0.549-0.281-0.34-0.564-0.689-0.838-1.047-0.109-0.14-0.221-0.291-0.335-0.445l-0.121-0.163c-0.257-0.347-0.511-0.694-0.756-1.041-0.157-0.227-0.306-0.452-0.457-0.679-0.281-0.42-0.488-0.726-0.686-1.041l-0.623-1.035c-0.149-0.248-0.296-0.494-0.436-0.744l-0.43-0.798c-0.185-0.342-0.371-0.686-0.543-1.032-0.145-0.288-0.281-0.578-0.42-0.868l-1.012-2.298c-0.091-0.218-0.182-0.438-0.267-0.657-0.085-0.212-0.161-0.43-0.238-0.647l-0.207-0.577c-0.094-0.257-0.187-0.511-0.272-0.769-0.091-0.273-0.176-0.556-0.261-0.838l-0.17-0.56c-0.064-0.209-0.127-0.415-0.187-0.624l-0.346-1.353c-0.063-0.239-0.126-0.481-0.181-0.726-0.061-0.26-0.113-0.53-0.166-0.801l-0.26-1.309c-0.058-0.339-0.106-0.675-0.154-1.012l-0.155-1.062c-0.072-0.557-0.118-1.036-0.158-1.522l-0.069-0.718c-0.049-0.633-0.072-1.247-0.093-1.865l-0.019-0.378c-0.019-0.794-0.015-1.586 0.009-2.373 0.021-0.645 0.052-1.284 0.1-1.921l0.022-0.294c0.066-0.809 0.155-1.605 0.261-2.395 0.535-3.952 1.62-7.818 3.226-11.493l0.127-0.308c0.249-0.563 0.515-1.108 0.785-1.649 0.76-1.532 1.619-3.033 2.552-4.458 0.497-0.759 1.018-1.496 1.556-2.218 0.459-0.614 0.931-1.214 1.42-1.803 1.705-2.052 3.609-3.955 5.66-5.657 2.506-2.076 5.121-3.805 7.855-5.213 0.223-0.116 0.452-0.225 0.681-0.336l0.267-0.129c0.259-0.127 0.52-0.254 0.783-0.376 0.884-0.406 1.831-0.801 2.815-1.171 2.817-1.062 5.779-1.831 8.806-2.286l0.3-0.046c1.816-0.257 3.509-0.4 5.185-0.436l0.312-0.003c0.241 0 0.481 0.006 0.721 0.012l0.155 0.003c0.809 0.019 1.619 0.057 2.425 0.129l1.033 0.103c0.23 0.021 0.463 0.043 0.691 0.075 0.577 0.077 1.145 0.184 1.715 0.29 0.705 0.131 1.332 0.281 1.959 0.433l0.303 0.073c1.124 0.269 2.171 0.557 3.169 0.871l0.405 0.121c0.181 0.052 0.363 0.105 0.539 0.161 1.127 0.379 2.259 0.803 3.466 1.298 0.918 0.376 1.795 0.76 2.628 1.15 2.666 1.236 4.844 2.473 6.203 3.293 1.298 0.785 2.086 1.327 2.185 1.396l0.505 0.35-0.209 0.587zM164.25 164.931c-2.572 2.689-5.106 5.492-7.532 8.33-7.755 9.050-14.881 18.994-21.183 29.557-1.142 1.922-2.275 3.88-3.396 5.888l-0.593 1.099-0.561-0.136c-0.47-0.115-0.928-0.212-1.386-0.311-2.161-0.459-4.148-0.757-6.037-0.913l-0.272-0.018c-1.697-0.127-3.437-0.149-5.004-0.088l-3.039 0.368c-0.426 0.064-0.857 0.137-1.283 0.215l-1.109 0.205c-0.431 0.088-0.864 0.187-1.299 0.288l-0.297 0.067c-0.249 0.057-0.499 0.112-0.747 0.176-0.342 0.085-0.672 0.178-1.002 0.27l-3.563 1.111c-0.752 0.266-1.492 0.549-2.225 0.848l-1.452 0.632c-0.241 0.106-0.483 0.21-0.718 0.322l-0.903 0.438c-0.305 0.147-0.609 0.291-0.91 0.445l-1.033 0.561c-0.447 0.245-0.899 0.491-1.344 0.753l-0.739 0.445c-0.42 0.257-0.845 0.52-1.262 0.791l-0.739 0.49c-0.402 0.272-0.808 0.553-1.207 0.835-0.239 0.172-0.48 0.348-0.721 0.529-0.381 0.287-0.766 0.578-1.144 0.874l-0.729 0.584c-0.354 0.29-0.703 0.587-1.051 0.887-0.249 0.217-0.499 0.431-0.741 0.648l-0.994 0.923c-0.236 0.22-0.466 0.438-0.693 0.66-0.366 0.361-0.726 0.735-1.083 1.108l-0.512 0.532c-0.379 0.412-0.751 0.832-1.114 1.25l-0.536 0.62-0.653-0.5-13.345-13.976c-1.256-1.383-2.228-2.976-2.981-4.885-0.402-1.008-0.687-1.905-0.9-2.822-0.741-3.202-0.851-6.944-0.326-11.125 0.733-5.925 2.709-12.655 5.87-19.997 4.797-11.155 12.351-23.641 21.847-36.106 4.816-6.32 10.156-12.681 15.874-18.907 6.070-6.618 12.61-13.131 19.436-19.355 19.328-17.632 39.862-32.086 59.382-41.8 9.302-4.632 18.059-8.019 26.026-10.065 7.761-2.002 14.772-2.687 20.362-1.981 2.608 0.324 4.953 0.948 6.981 1.855l7.025-1.586 18.761 21.785 0.176-0.082c1.572-0.732 3.114-1.434 4.638-2.106 0.908-0.399 1.801-0.784 2.692-1.165l1.755-0.735c9.758-3.874 24.326-8.487 38.401-8.487 2.481 0 4.885 0.148 7.147 0.438 3.441 0.444 6.672 1.238 9.607 2.363 0.406 0.228 0.717 0.416 1.015 0.611 0.623 0.185 1.232 0.409 1.837 0.632 3.707 1.827 6.881 4.217 9.508 7.138 16.049 20.604-10.558 54.175-19.094 63.976-1.066 1.223-1.886 2.121-2.349 2.621l-0.903 0.973-0.451-1.598c-0.582-1.819-1.396-3.619-2.419-5.348-0.783-1.326-1.698-2.615-2.716-3.832-0.524-0.63-1.063-1.236-1.622-1.811l-0.46-0.462c-0.742-0.741-1.54-1.468-2.369-2.161-0.78-0.653-1.585-1.275-2.388-1.85-0.378-0.269-0.752-0.53-1.13-0.784-0.729-0.491-1.457-0.945-2.167-1.369-0.763-0.454-1.511-0.875-2.234-1.259l-1.169-0.599c-1.631-0.811-3.075-1.423-4.174-1.852 0.874 1.268 1.484 2.51 1.825 3.705l0.581 2.035-1.729-1.221c-0.015-0.011-1.519-1.068-4.175-2.519l-0.639-0.346c-0.785-0.421-1.662-0.866-2.621-1.329-3.563-1.715-7.315-3.179-11.154-4.351-0.527-0.16-1.056-0.317-1.587-0.466 1.45 1.284 2.554 2.657 3.285 4.081l0.929 1.813-1.882-0.784c-0.033-0.014-3.372-1.389-8.8-2.394-5.764-1.069-11.796-1.345-17.65-0.799-0.587 0.055-1.183 0.123-1.785 0.197 0.058 0.022 0.118 0.046 0.178 0.069 2.236 0.871 4.141 1.91 5.664 3.091 1.092 0.853 1.991 1.773 2.671 2.731l1.174 1.653-1.965-0.497c-0.030-0.007-2.955-0.738-7.714-1.095-1.498-0.112-3.046-0.178-4.602-0.192l-0.574-0.001c-1.589 0-3.206 0.052-4.804 0.155-3.090 0.202-6.19 0.6-9.209 1.186-2.442 0.475-4.917 1.098-7.362 1.847-2.488 0.763-4.937 1.665-7.32 2.694 0.533-0.049 1.069-0.090 1.605-0.121 0.83-0.051 1.65-0.072 2.461-0.082l0.487-0.001c0.927 0.001 1.723 0.018 2.51 0.058 0.841 0.043 1.665 0.109 2.476 0.194l3.139 0.329-2.954 1.113c-0.921 0.346-1.939 0.744-3.038 1.192-0.711 0.288-1.46 0.602-2.24 0.936-2.824 1.211-5.697 2.551-8.54 3.98-1.952 0.98-3.956 2.038-5.957 3.148-2.625 1.452-5.324 3.041-8.019 4.723-2.134 1.335-4.25 2.718-6.29 4.111-10.97 7.489-21.304 16.267-30.712 26.090zM383.133 311.302l-0.001 0.009c-0.058 2.499-0.895 4.87-2.551 7.247-0.093 0.133-0.197 0.272-0.3 0.406-0.929 1.262-1.94 2.394-3.139 3.523l-0.003 0.006c-0.361 0.77-0.718 1.523-1.095 2.277l-0.113 0.246c-0.127 0.264-0.257 0.521-0.388 0.781-0.333 0.668-0.651 1.275-0.975 1.89l-0.433 0.826c-0.475 0.884-0.918 1.677-1.369 2.474l-1.513 2.544c-0.346 0.566-0.658 1.075-0.983 1.586l-0.472 0.726c-0.645 0.998-1.335 2.004-2.034 3.007l-0.602 0.897c-0.514 0.711-1.027 1.413-1.556 2.118l-0.163 0.212c-2.279 3.023-4.705 5.891-7.208 8.523-2.035 2.142-4.221 4.235-6.497 6.224l-0.533 0.493-0.046-0.001c-2.068 1.719-4.362 3.465-7.008 5.331-1.47 1.026-2.943 2.004-4.382 2.909-2.065 1.299-4.062 2.474-5.973 3.52l-0.406 0.225c-2.767 1.486-5.67 2.89-8.642 4.177-4.653 2.023-9.559 3.78-14.578 5.218-11.978 3.436-24.771 5.179-38.026 5.179-21.76 0-41.791-5.003-50.953-10.359l3.956 7.088-2.085-0.965c-0.696-0.322-1.592-1.009-2.74-2.101-2.453-2.331-6.003-6.475-10.549-12.317l-2.098-2.734c-0.293-0.387-0.569-0.751-0.819-1.083 0.808 2.991 2.873 7.323 2.894 7.368l2.839 5.841-4.062-5.008-0.866-0.866 0.145-0.042c-1.58-2.034-3.236-4.449-4.934-7.198-1.271-2.062-2.549-4.281-3.909-6.789l-0.814-1.531c-0.72-1.377-1.343-2.609-1.847-3.63 0.239 3.315 1.18 6.218 2.009 8.213 0.14 0.336 0.281 0.655 0.418 0.957 0.157 0.332 0.284 0.599 0.409 0.85 0.155 0.308 0.273 0.536 0.382 0.744 0.609 1.124 1.032 1.735 1.036 1.741l2.163 4.325-3.306-3.37c-0.783-0.806-1.532-1.619-2.265-2.429l-0.681-0.785c-0.485-0.549-0.968-1.105-1.432-1.659-0.26-0.314-0.509-0.627-0.759-0.941-0.409-0.497-0.812-1.008-1.213-1.519-0.254-0.333-0.497-0.66-0.741-0.99-0.372-0.493-0.739-0.99-1.092-1.493l-0.691-0.993c-0.342-0.5-0.676-1.004-1.004-1.504l-0.113-0.173c-0.173-0.269-0.345-0.535-0.512-0.803-0.327-0.517-0.641-1.043-0.95-1.565-0.181-0.3-0.363-0.605-0.535-0.906-0.332-0.579-0.647-1.159-0.956-1.737l-0.393-0.729c-0.842-1.629-1.617-3.293-2.309-4.953l-0.303-0.767c-0.228-0.56-0.449-1.129-0.658-1.697l-0.322-0.917c-0.179-0.517-0.353-1.027-0.518-1.538-0.105-0.33-0.203-0.654-0.3-0.983-0.148-0.488-0.287-0.981-0.423-1.471-0.093-0.327-0.178-0.66-0.261-0.99-0.127-0.487-0.242-0.978-0.354-1.465l-0.214-0.968c-0.103-0.49-0.194-0.972-0.284-1.462l-0.169-0.957c-0.087-0.509-0.157-1.025-0.227-1.533l-0.119-0.851c-0.095-0.79-0.181-1.577-0.242-2.364l-0.027-0.424c-0.046-0.642-0.085-1.283-0.112-1.926-0.024-0.642-0.040-1.277-0.040-1.91-0.006-0.928 0.014-1.746 0.046-2.557 0.006-0.23 0.021-0.466 0.035-0.704 0.032-0.623 0.069-1.187 0.116-1.744l0.014-0.16c0.019-0.23 0.039-0.46 0.064-0.691 0.052-0.543 0.115-1.096 0.185-1.647 0.028-0.241 0.060-0.491 0.094-0.742 0.106-0.767 0.227-1.532 0.363-2.289 0.152-0.827 0.309-1.572 0.476-2.31 0.039-0.191 0.090-0.393 0.139-0.595 0.152-0.648 0.282-1.162 0.42-1.671 0.069-0.261 0.139-0.525 0.214-0.785 0.145-0.511 0.297-1.012 0.452-1.514 0.067-0.223 0.139-0.454 0.215-0.681 0.228-0.708 0.469-1.416 0.724-2.11 0.442-1.199 0.932-2.4 1.455-3.575 3.041-6.817 7.252-12.771 12.204-17.259-0.624-1.009-1.226-2.010-1.822-3.005-1.892-3.182-3.656-6.366-5.264-9.495l0.447 11.629-1.434-1.895c-0.35-0.463-0.709-1.163-1.096-2.146-2.038-5.185-4.154-16.712-5.034-21.831-0.384 1.883-0.679 4.841-0.747 7.94l-0.142 6.495-1.335-6.357c-0.929-4.42-1.501-9.985-1.702-16.531-0.039-1.213-0.058-2.358-0.070-3.424-0.009-1.066-0.009-2.038-0.003-2.901l0.007-0.726c-0.021 0.049-0.040 0.097-0.061 0.148l-0.097 0.234c-0.042 0.098-0.084 0.197-0.119 0.296-0.166 0.433-0.315 0.848-0.448 1.262-0.48 1.496-0.832 3.119-1.047 4.822-0.082 0.687-0.139 1.335-0.176 1.941-0.151 2.577 0.085 4.365 0.088 4.383l-1.474 0.242c-0.276-1.438-0.52-2.849-0.745-4.25-0.049-0.305-0.093-0.609-0.136-0.913l-0.061-0.423c-0.242-1.599-0.451-3.179-0.624-4.731l-0.145-1.419c-0.058-0.591-0.109-1.174-0.157-1.759-0.118-1.404-0.215-2.799-0.275-4.162l-0.014-0.202c-0.060-1.39-0.084-2.736-0.088-4.069l0.004-0.886c0-0.546-0.001-1.093 0.009-1.631 0.009-0.418 0.028-0.829 0.046-1.239l0.035-0.781c0.055-1.186 0.124-2.355 0.218-3.508 0.103-1.262 0.223-2.509 0.376-3.732l0.209-1.445c0.373-2.576 0.811-4.906 1.341-7.123l0.079-0.306c0.136-0.557 0.282-1.117 0.43-1.674 0.56-2.088 1.21-4.151 1.931-6.136 1.398-3.848 3.133-7.581 5.159-11.098l0.124-0.206c0.968-1.668 1.992-3.28 3.041-4.783 1.304-1.882 2.812-3.814 4.609-5.906l0.418-0.499c0.212-0.256 0.423-0.512 0.644-0.757 0.17-0.188 0.346-0.371 0.524-0.553l0.488-0.512c0.689-0.744 1.38-1.487 2.095-2.198 0.178-0.178 0.363-0.348 0.549-0.518l0.396-0.369c7.801-7.49 17.681-13.934 29.369-19.152 1.449-0.645 2.897-1.262 4.346-1.852 2.171-0.884 4.147-1.644 6.044-2.325 2.445-0.877 5.010-1.729 7.625-2.531 5.834-1.791 12.002-3.372 18.852-4.833l1.473-0.311c2.223-1.816 4.61-3.43 7.093-4.801 4.549-2.515 9.23-4.046 13.909-4.553l2.119-0.158c0.137-0.012 0.275-0.024 0.413-0.028l0.166 1.478c-0.015 0.003-0.303 0.063-0.739 0.188-0.21 0.061-0.452 0.142-0.736 0.241l-0.296 0.106c-0.297 0.112-0.624 0.257-0.965 0.417-1.538 0.72-3.56 2.004-5.206 4.208 2.374-0.963 6.892-2.653 11.575-3.653l1.259-0.249c0.193-0.036 0.393-0.066 0.591-0.097l0.314-0.049c1.144-0.184 2.012-0.291 2.819-0.353l4.571-0.342-4.226 1.775c-0.015 0.006-1.565 0.66-3.085 1.522-0.371 0.209-0.691 0.403-0.971 0.581 1.192-0.13 2.447-0.203 3.759-0.217l0.406-0.004c1.374 0 2.83 0.079 4.583 0.248l0.82 0.073c0.202 0.017 0.405 0.033 0.605 0.058 0.708 0.085 1.405 0.187 2.093 0.296 1.903 0.303 3.823 0.705 5.706 1.195l0.4 0.1c2.418 0.644 4.145 1.267 5.167 1.676l0.732 0.309c0.651 0.29 1.132 0.543 1.442 0.76l0.003-0.004 0.131 0.093c0.246 0.167 0.503 0.346 0.749 0.53l0.127 0.094c0.291 0.224 0.579 0.448 0.851 0.679 0.665 0.571 1.236 1.123 1.855 1.786l0.203 0.191c0.467 0.508 0.82 0.954 1.169 1.401l0.308 0.379c0.1 0.119 0.202 0.239 0.294 0.363 0.108 0.147 0.207 0.291 0.305 0.434l0.199 0.287c0.339 0.484 0.669 0.965 0.976 1.455l0.465 0.785c0.321 0.549 0.579 1.002 0.824 1.465 0.145 0.27 0.281 0.542 0.415 0.815 0.275 0.559 0.484 1.004 0.691 1.456l0.4 0.911c0.194 0.454 0.375 0.9 0.545 1.348l0.318 0.823c0.175 0.483 0.335 0.941 0.485 1.402l0.048 0.14c0.061 0.175 0.121 0.35 0.172 0.518 0.197 0.605 0.376 1.201 0.532 1.757h0.001l0.43 1.59c0.228 0.951 0.391 1.687 0.505 2.255l0.144 0.747-0.689 0.397 0.332-0.063 0.251-0.233c0.048 0.052 0.097 0.105 0.147 0.158h0.006l0.001 0.009c0.275 0.3 0.545 0.615 0.82 0.938l0.339 0.423c0.242 0.299 0.485 0.624 0.726 0.957l0.309 0.436c0.329 0.466 0.658 0.965 0.98 1.496l0.23 0.411c0.291 0.56 0.559 1.139 0.815 1.735l0.297 0.73c0.164 0.434 0.285 0.753 0.403 1.083l0.337 0.99c0.033 0.1 0.063 0.207 0.093 0.314l0.134 0.472c0.095 0.326 0.192 0.654 0.279 0.996l0.103 0.411-0.006 0.006c0.054 0.228 0.101 0.447 0.151 0.665 0.094 0.438 0.176 0.829 0.249 1.229l0.037 0.189c0.055 0.29 0.112 0.579 0.16 0.878 0.119 0.714 0.214 1.453 0.297 2.215l0.093 0.933c0.063 0.711 0.116 1.439 0.155 2.191l0.035 0.575c0.036 0.948 0.048 1.941 0.039 2.958l-0.009 0.752c-0.021 1.080-0.057 2.173-0.13 3.323-0.278 4.422-0.549 8.258-0.785 11.605-0.233 3.278-0.431 6.085-0.57 8.515-0.751 13.31 0.236 14.721 8.328 19.654 0.007 0.001 1.174 0.617 2.996 1.959 0.417 0.305 0.903 0.653 1.452 1.040 4.465 3.173 12.777 9.079 19.019 18.535l0.536 0.808c0.358 0.261 0.754 0.521 1.169 0.783 0.337 0.214 0.682 0.426 1.062 0.636 0.423 0.238 0.798 0.493 1.16 0.759 0.62 0.454 1.181 0.96 1.671 1.504 2.76 3.069 3.015 6.976 2.919 9.032l-0.011 0.238-0.308 0.416c-0.694 0.626-1.405 1.215-2.109 1.825l1.556-2.327c-26.71 24.059-56.116 31.087-78.467 32.448-12.29 0.751-22.455-0.209-28.836-1.001-0.227-0.028-0.423-0.054-0.641-0.084-1.915-0.242-3.476-0.466-4.589-0.603-0.557-0.070-1.008-0.118-1.344-0.14-1.673-0.113-3.267 0.093-4.755 0.56-3.042 0.951-5.64 3.005-7.592 5.726-2.412 3.357-3.832 7.721-3.899 12.284-0.045 3.756 0.827 7.637 2.843 11.196 0.079 0.144 0.155 0.288 0.241 0.434 0.23 0.39 0.481 0.774 0.744 1.151 0.353 0.517 0.726 1.027 1.137 1.525 4.682 5.77 14.752 10.066 28.189 11.738 9.091 1.13 19.731 1.036 31.27-0.591 34.008-6.146 50.177-17.137 57.644-24.855 0.543-0.563 1.047-1.111 1.504-1.64 1.913-2.205 3.067-4.038 3.733-5.285 0.382-0.345 0.777-0.69 1.142-1.040l0.483-0.466-0.087-0.405c-0.157-0.735-0.311-1.381-0.441-1.9l-0.269-1.027c-0.088-0.281-0.184-0.524-0.275-0.788 0.209-0.012 0.418-0.027 0.627-0.031 0.327-0.010 0.535-0.015 0.738-0.015 0.702 0 1.344 0.042 1.908 0.122 1.002 0.145 1.905 0.406 2.685 0.78 0.285 0.142 0.542 0.284 0.781 0.444 0.43 0.273 0.83 0.599 1.177 0.965 0.184 0.193 0.366 0.388 0.515 0.591l0.098 0.148c0.109 0.16 0.179 0.267 0.248 0.385 1.338 2.277 1.029 4.731 1.015 4.834zM326.262 314.419c-1.519 0.355-3.357 0.665-5.474 1.142-1.050 0.251-2.21 0.397-3.415 0.63-1.213 0.21-2.488 0.473-3.833 0.621-2.655 0.376-5.694 0.717-8.924 1.092-1.589 0.13-3.231 0.267-4.921 0.405-1.704 0.085-3.453 0.169-5.25 0.26-7.179 0.21-15.102-0.115-23.165-1.598-4.017-0.708-9.296-2.474-13.313-4.625l0.098-0.777-0.069-0.039c2.458-7.441 10.178-8.606 10.514-8.652l0.079-0.011c14.433 1.708 28.639 1.528 42.095-0.532 19.757-3.027 37.926-10.081 54.001-20.965 0.617-0.416 1.235-0.842 1.849-1.274 0.035 0.072 0.073 0.147 0.109 0.223 1.201 2.46 2.506 6.469 1.904 11.594-0.080 0.675-0.202 1.398-0.358 2.146-0.123 0.561-0.257 1.13-0.427 1.715l-0.126 0.433 0.322 0.314c0.009 0.007 0.83 0.814 1.817 2.41 0.672 1.080 1.637 2.89 2.397 5.355l0.255 0.981c0.1 0.402 0.218 0.889 0.339 1.438-2.591 2.473-5.719 4.965-9.296 7.407-14.595 9.971-35.889 18.423-51.92 20.573-11.339 1.801-22.57 2.125-32.241 0.92-5.422-0.672-10.501-1.872-14.556-3.405-2.648-1.674-7.111-5.761-7.476-14.207 4.387 1.775 9.344 2.894 13.122 3.569 8.557 1.579 16.818 1.765 24.24 1.309 1.853-0.155 3.659-0.291 5.413-0.466 1.756-0.227 3.457-0.449 5.11-0.66 3.211-0.542 6.178-1.066 8.96-1.68 1.389-0.26 2.674-0.641 3.892-0.972 1.22-0.355 2.376-0.623 3.432-1.005 2.109-0.727 3.947-1.319 5.37-1.94 2.855-1.214 4.389-2.035 4.293-2.337-0.091-0.311-1.816-0.079-4.849 0.606z"></path>
<path fill="#000" d="M140.893 221.672c-0.814-0.381-1.669-0.754-2.565-1.121-1.177-0.483-2.279-0.895-3.369-1.26-0.155-0.051-0.319-0.098-0.485-0.147l-0.438-0.13c-0.965-0.305-1.977-0.584-3.009-0.83l-0.364-0.088c-0.602-0.145-1.204-0.29-1.822-0.405-0.606-0.113-1.152-0.215-1.704-0.29-0.207-0.028-0.418-0.048-0.626-0.067l-1.039-0.103c-0.765-0.069-1.543-0.103-2.319-0.122l-0.157-0.004c-0.227-0.006-0.455-0.012-0.683-0.012l-0.276 0.003c-1.619 0.035-3.254 0.172-5.001 0.42l-0.294 0.045c-2.927 0.439-5.787 1.181-8.505 2.207-0.951 0.358-1.865 0.738-2.716 1.129-0.251 0.116-0.502 0.239-0.751 0.361l-0.278 0.133c-0.215 0.103-0.43 0.206-0.642 0.315-2.64 1.359-5.164 3.030-7.501 4.965-2.065 1.712-3.903 3.551-5.549 5.533-0.473 0.569-0.929 1.147-1.371 1.74-0.521 0.699-1.025 1.413-1.505 2.145-0.9 1.375-1.729 2.824-2.464 4.305-0.261 0.524-0.517 1.048-0.752 1.583l-0.124 0.299c-1.553 3.557-2.601 7.291-3.117 11.106-0.103 0.765-0.189 1.533-0.252 2.31l-0.022 0.29c-0.046 0.615-0.076 1.232-0.095 1.855-0.024 0.76-0.028 1.525-0.009 2.292l0.018 0.371c0.019 0.588 0.042 1.181 0.088 1.773l0.070 0.736c0.037 0.444 0.081 0.892 0.131 1.332l0.028 0.179 0.145 0.978c0.046 0.324 0.093 0.65 0.147 0.966l0.254 1.281c0.049 0.252 0.097 0.505 0.155 0.753 0.052 0.234 0.112 0.46 0.17 0.682l0.687 2.481c0.082 0.27 0.163 0.539 0.251 0.802 0.081 0.246 0.167 0.484 0.254 0.724l0.184 0.505c0.1 0.287 0.17 0.485 0.249 0.686 0.084 0.215 0.169 0.42 0.255 0.626l0.987 2.24c0.13 0.278 0.261 0.554 0.402 0.832 0.169 0.336 0.345 0.663 0.523 0.993l0.421 0.778c0.131 0.236 0.273 0.47 0.413 0.708l0.606 1.011c0.187 0.296 0.385 0.591 0.585 0.889 0.225 0.34 0.369 0.556 0.517 0.769 0.234 0.333 0.483 0.671 0.73 1.008l0.438 0.585c0.266 0.348 0.535 0.682 0.809 1.012 0.148 0.185 0.284 0.355 0.43 0.523 0.296 0.351 0.59 0.684 0.892 1.017l0.426 0.466c0.317 0.346 0.636 0.676 0.96 1.001l0.42 0.416c0.314 0.311 0.639 0.612 0.962 0.911l0.483 0.439c0.358 0.321 0.733 0.639 1.114 0.954l0.369 0.308c0.405 0.332 0.809 0.644 1.215 0.954 0.109 0.079 0.238 0.176 0.358 0.272 0.408 0.296 0.836 0.597 1.272 0.895l0.329 0.223c0.445 0.299 0.9 0.593 1.362 0.875l0.296 0.179c0.48 0.294 0.965 0.566 1.455 0.836l0.261 0.148c0.497 0.27 1.011 0.529 1.528 0.783l0.215 0.101c0.538 0.261 1.074 0.505 1.617 0.739l0.205 0.093c0.542 0.224 1.106 0.449 1.676 0.666l0.137 0.046c0.596 0.22 1.18 0.423 1.774 0.612 0.306 0.098 0.494 0.152 0.681 0.203l1.28 0.371c0.714 0.188 1.347 0.339 1.988 0.475l0.155 0.037c0.614 0.129 1.238 0.245 1.861 0.342l0.147 0.037c1.928 0.3 4.010 0.48 6.073 0.505 0.367 0.006 0.73 0.012 1.093 0.012l0.418-0.003c0.662-0.018 1.35-0.060 2.041-0.116 0.944-0.077 1.911-0.189 2.873-0.336 0.856-0.127 1.704-0.278 2.552-0.455 1.345-0.279 2.655-0.603 3.896-0.965 3.572-1.038 6.678-2.379 8.63-3.717-0.342-1.535-1.426-6.489-2.358-11.452-0.124-0.655-0.246-1.322-0.361-1.973l-0.199-1.116c-0.025 0.012-0.049 0.022-0.073 0.031l-0.411 0.178c-0.921 0.426-1.892 0.793-2.882 1.095-0.14 0.042-0.281 0.091-0.418 0.137-0.176 0.060-0.353 0.121-0.503 0.16l-0.203 0.045-1.262 0.282c-0.394 0.079-0.778 0.143-1.151 0.196-0.181 0.025-0.364 0.035-0.548 0.046-0.145 0.009-0.288 0.018-0.431 0.031l-0.413 0.040c-0.43 0.043-0.86 0.090-1.298 0.098l-0.315 0.003c-0.517 0-1.029-0.024-1.538-0.057-0.418-0.028-0.832-0.060-1.239-0.101-1.705-0.187-3.455-0.595-5.203-1.213-1.741-0.612-3.385-1.411-4.886-2.377-2.673-1.723-4.943-3.952-6.745-6.626-0.878-1.295-1.614-2.639-2.185-3.993-0.322-0.762-0.608-1.556-0.848-2.367-0.303-0.996-0.538-2.068-0.717-3.275l-0.040-0.27c-0.033-0.217-0.067-0.431-0.088-0.632l-0.025-0.321c-0.054-0.563-0.105-1.126-0.119-1.697-0.017-0.708 0.001-1.424 0.060-2.191 0.009-0.129 0.027-0.255 0.042-0.381l0.142-1.232c0.018-0.147 0.035-0.29 0.060-0.438 0.070-0.459 0.17-0.907 0.284-1.408l0.108-0.506c0.142-0.591 0.306-1.168 0.491-1.734l0.033-0.094c0.045-0.133 0.095-0.263 0.147-0.394l0.116-0.305c0.217-0.588 0.457-1.162 0.715-1.722l0.236-0.506c0.581-1.181 1.239-2.289 1.959-3.296l0.098-0.14c0.067-0.093 0.137-0.181 0.209-0.269l0.288-0.371c0.157-0.21 0.315-0.423 0.48-0.615l0.197-0.225c0.366-0.426 0.759-0.833 1.163-1.232 0.228-0.228 0.457-0.457 0.694-0.678 0.46-0.427 0.928-0.845 1.411-1.229l0.557-0.439c0.301-0.223 0.612-0.433 0.944-0.653 0.254-0.176 0.52-0.345 0.794-0.512 0.287-0.173 0.575-0.35 0.847-0.502l0.353-0.181c0.254-0.133 0.511-0.267 0.76-0.39l0.315-0.155c0.127-0.064 0.254-0.13 0.385-0.188 0.603-0.267 1.218-0.508 1.849-0.729 0.119-0.042 0.241-0.077 0.361-0.112l0.275-0.084c0.465-0.147 0.929-0.278 1.413-0.397 0.239-0.061 0.48-0.111 0.745-0.166l0.654-0.122c0.266-0.048 0.53-0.097 0.777-0.136l0.681-0.095c0.845-0.094 1.535-0.145 2.173-0.157l0.472-0.004c0.33 0 0.657 0.006 0.983 0.021 0.582 0.025 1.157 0.076 1.728 0.142 0.953 0.111 1.929 0.29 2.895 0.528l0.238 0.061c1.465 0.379 2.895 0.9 4.238 1.541l0.354 0.178 0.329-0.721 5.040-9.103c0.749-1.348 1.392-2.491 1.78-3.184l0.081-0.143c-0.358-0.236-0.897-0.581-1.582-0.994-1.327-0.795-3.455-2.002-6.062-3.211z"></path>
<path fill="#000" d="M325.956 231.656l-0.093-1.029c0 0-0.037-0.413-0.188-1.044-0.557-2.273-2.811-7.804-11.748-6.944-9.209 0.887-12.283 8.463-13.006 10.764-0.167 0.536-0.238 0.877-0.238 0.877l-0.091 0.433 0.63 0.539c-0.472 0.877-0.287 2.026 0.378 3.119 0.473 0.772 1.189 1.519 2.101 2.1 1.525 0.966 3.173 1.223 4.34 0.808l0.506 0.194c0 0 0.357 0.137 0.957 0.311 1.007 0.297 3.031 0.796 5.289 0.796 3.566 0 6.42-1.253 8.251-3.62l0.113-0.143c0.151-0.189 0.299-0.379 0.438-0.595l0.173-0.269c0.881-0.147 1.783-1.177 2.241-2.702 0.055-0.172 0.090-0.342 0.129-0.512v-0.006c0.248-1.16 0.166-2.292-0.184-3.078zM322.126 233.293c-0.192 0.639-0.275 1.277-0.269 1.873 0 1.243 0.399 2.288 1.114 2.652-0.161 0.251-0.34 0.463-0.514 0.686-3.626 4.683-10.325 3.278-12.74 2.566-0.566-0.163-0.902-0.291-0.902-0.291 0.16-0.148 0.299-0.309 0.408-0.505 0.521-0.906 0.317-2.127-0.418-3.26v-0.003c-0.473-0.736-1.169-1.435-2.041-1.989-1.908-1.213-4.013-1.322-5.113-0.385l-0.236-0.203c0 0 0.066-0.312 0.22-0.808 0.751-2.392 3.669-9.405 12.363-10.243 8.315-0.799 10.426 4.241 10.952 6.378 0.134 0.563 0.169 0.936 0.169 0.936-1.056-0.533-2.401 0.629-2.993 2.597z"></path>
<path fill="#000" d="M242.093 62.305l-1.574-14.588 7.98-2.124 18.301 21.531 0.133-0.111-18.386-21.559-8.136 2.149-2.996 6.63 0.484 5.937z"></path>
<path fill="#000" d="M260.364 71.015l-8.092-9.362 1.645 12.736v-0.004l0.001-0.001v0.003z"></path>
<path fill="#000" d="M245.432 79.212l6.808-3.905-17.835-8.719 11.025 12.621z"></path>
<path fill="#000" d="M343.088 66.311c-2.464-2.739-5.489-5.015-8.953-6.726-0.535-0.193-1.148-0.418-1.774-0.6l-0.205-0.094c-0.305-0.202-0.615-0.391-0.931-0.578-0.921-0.35-1.905-0.655-2.913-0.941-1.712-0.263-3.475-0.426-5.315-0.463-1.059-0.022-2.135-0.011-3.234 0.033-7.165 0.308-15.33 1.97-24.787 5-4.921 1.583-10.217 3.574-15.847 5.942-0.998 0.42-1.989 0.827-3.012 1.272-1.117 0.487-2.255 0.996-3.4 1.514-0.281 0.126-0.556 0.249-0.835 0.373-0.137 0.063-0.276 0.124-0.415 0.188-0.267 0.119-0.539 0.254-0.808 0.375-0.975 0.451-1.964 0.917-2.955 1.384-0.278 0.131-0.548 0.254-0.826 0.388-0.157 0.072-0.314 0.154-0.469 0.227-0.848 0.409-1.71 0.826-2.576 1.249l-0.095 0.049c-0.058 0.030-0.116 0.055-0.173 0.085-0.279 0.134-0.553 0.266-0.833 0.405l-0.067 0.031c-0.155 0.077-0.306 0.158-0.463 0.236-0.412 0.205-0.819 0.416-1.229 0.626-0.309 0.155-0.618 0.314-0.928 0.47-0.166 0.085-0.333 0.166-0.496 0.251-1.977 1.014-3.95 2.046-5.912 3.115l-0.006 0.003c-0.621 0.337-1.246 0.684-1.864 1.027-1.041 0.577-2.080 1.155-3.112 1.746-0.426 0.242-0.851 0.49-1.277 0.733-0.814 0.47-1.622 0.95-2.436 1.428-0.829 0.49-1.655 0.98-2.482 1.478-0.441 0.266-0.878 0.535-1.313 0.802-0.774 0.472-1.549 0.936-2.319 1.414-1.543 0.962-3.082 1.939-4.611 2.929-4.783 3.090-9.508 6.315-14.166 9.657v-0.001c-10.634 7.625-20.93 15.844-30.824 24.381-16.288 14.067-31.454 28.999-45.13 43.582 0.796-0.938 1.607-1.877 2.418-2.818-0.98 0.98-1.532 1.492-1.589 1.431-0.14-0.094 3.281-4.271 9.555-11.027 3.125-3.367 6.959-7.373 11.418-11.842 8.236-8.666 16.954-17.288 26.103-25.588 8.666-7.857 17.711-15.42 27.076-22.472 0.465-0.348 0.924-0.7 1.389-1.044 3.572-2.661 7.195-5.236 10.858-7.729 2.218-1.508 4.448-2.988 6.696-4.428l-25.951-29.577-0.113 10.716 16.695 20.070c-3.605 1.559-7.302 3.323-11.066 5.268-1.729 0.89-3.468 1.813-5.224 2.785-0.621 0.343-1.249 0.709-1.872 1.063-6.589 3.735-13.339 7.994-20.16 12.774-10.126 7.098-20.393 15.289-30.464 24.468-7.785 7.102-14.996 14.375-21.561 21.667-10.441 11.59-19.236 23.229-26.118 34.326-5.376 8.67-9.559 16.997-12.438 24.716 0.084-0.040 0.176-0.090 0.259-0.129l0.918-0.445c0.243-0.113 0.496-0.224 0.749-0.336l1.468-0.639c0.773-0.315 1.533-0.606 2.303-0.878 0.129-0.046 0.266-0.091 0.403-0.134l3.145-0.975c0.46-0.129 0.802-0.224 1.15-0.311 0.254-0.067 0.521-0.127 0.788-0.187l0.288-0.066c0.447-0.103 0.895-0.206 1.344-0.297l1.137-0.209c0.436-0.079 0.881-0.155 1.325-0.223l2.116-0.282c0.137-0.015 0.272-0.027 0.408-0.036l0.665-0.063c1.659-0.066 3.439-0.042 5.182 0.090l0.278 0.018c1.962 0.161 4.014 0.469 6.109 0.914 0.369 0.079 0.689 0.148 0.994 0.217l0.058-0.106c1.127-2.023 2.268-3.993 3.418-5.929 6.345-10.637 13.521-20.651 21.331-29.765 2.445-2.858 4.998-5.68 7.589-8.391 9.481-9.898 19.893-18.744 30.951-26.292 2.055-1.404 4.189-2.799 6.341-4.144 2.718-1.697 5.439-3.299 8.086-4.762 2.019-1.12 4.041-2.188 6.011-3.175 2.869-1.442 5.77-2.796 8.621-4.017 0.778-0.335 1.526-0.647 2.237-0.935-0.47-0.014-0.945-0.019-1.423-0.021l-0.596 0.001c-0.778 0.010-1.574 0.031-2.382 0.079-1.58 0.093-3.158 0.263-4.692 0.505-0.533 0.084-1.071 0.178-1.614 0.282l-5.103 0.993 4.619-2.389c3.811-1.97 7.84-3.612 11.978-4.883 2.492-0.766 5.021-1.401 7.515-1.886 3.082-0.597 6.244-1.004 9.397-1.211 1.631-0.105 3.278-0.157 4.9-0.157l0.587 0.001c1.589 0.017 3.172 0.082 4.7 0.197 2.443 0.184 4.4 0.459 5.764 0.691-0.297-0.279-0.617-0.551-0.959-0.819-1.407-1.090-3.188-2.059-5.289-2.877-0.672-0.263-1.309-0.488-1.871-0.665-0.451-0.142-0.865-0.263-1.208-0.354l-3.28-0.877 3.345-0.579c0.835-0.145 1.658-0.264 2.47-0.373 0.863-0.116 1.716-0.217 2.552-0.296 5.997-0.561 12.163-0.278 18.062 0.817 3.043 0.563 5.427 1.231 6.99 1.732-0.542-0.681-1.187-1.347-1.931-1.992-0.848-0.732-1.788-1.416-2.791-2.033l-3.892-2.394 4.45 1.029c1.801 0.416 3.615 0.902 5.393 1.445 3.91 1.195 7.734 2.687 11.364 4.434 0.978 0.472 1.874 0.928 2.676 1.356l0.655 0.357c0.884 0.483 1.64 0.92 2.262 1.295-0.385-0.687-0.861-1.392-1.429-2.107-0.263-0.33-0.529-0.658-0.805-0.968l-2.355-2.645 3.896 1.702c0.221 0.075 0.49 0.167 0.812 0.284 1.18 0.43 3.045 1.169 5.227 2.255l1.213 0.623c0.744 0.393 1.514 0.829 2.3 1.296 0.733 0.438 1.484 0.907 2.237 1.413 0.387 0.26 0.774 0.529 1.162 0.806 0.838 0.599 1.67 1.244 2.479 1.922 0.861 0.721 1.692 1.478 2.467 2.252l0.476 0.48c0.566 0.584 1.138 1.221 1.694 1.893 1.071 1.275 2.031 2.633 2.857 4.028 0.914 1.546 1.671 3.147 2.257 4.773 0.405-0.449 0.896-1.001 1.456-1.643 8.348-9.584 34.39-42.376 19.076-62.039z"></path>
<path fill="#000" d="M220.727 51.43l17.164 8.628 0.009 0.112-17.19-8.627-8.487 2.839-0.154-0.175z"></path>
<path fill="#000" d="M137.407 277.665l-0.025 0.196-0.187 1.457-1.298-0.917c-0.145-0.158-0.343-0.382-0.624-0.721l-0.35-0.436c-0.167-0.212-0.354-0.465-0.553-0.73l-0.161-0.221c-0.21-0.291-0.431-0.603-0.669-0.959-0.259-0.384-0.529-0.806-0.809-1.262-0.22-0.36-0.442-0.736-0.673-1.138-0.405-0.715-0.816-1.488-1.223-2.33-0.335-0.681-0.66-1.407-0.987-2.18-0.122-0.291-0.243-0.588-0.361-0.89l-0.006 0.264c-0.012 0.699-0.015 1.301 0.007 1.91 0.024 0.641 0.084 1.29 0.147 1.941 0.106 1.102 0.241 2.065 0.409 2.944 0.054 0.275 0.112 0.551 0.172 0.83l0.599 3.027-1.995-2.28c-0.066-0.070-0.158-0.182-0.278-0.326-0.112-0.13-0.2-0.239-0.294-0.357l-0.918-1.204c-1.363-1.887-3.3-5.001-4.903-9.248 0.082 1.989 0.337 3.914 0.757 5.727l0.623 2.692-1.895-2.013c0 0-0.111-0.115-0.308-0.346-0.079-0.090-0.178-0.209-0.293-0.346-0.629-0.769-1.778-2.27-3.042-4.445-1.053-1.804-1.977-3.721-2.754-5.708 0.079 1.707 0.281 3.327 0.6 4.893 0.027 0.122 0.048 0.249 0.070 0.376 0.022 0.133 0.045 0.264 0.076 0.397l-0.805 0.241-0.48 0.429-0.715-0.833c-0.602-0.748-1.193-1.561-1.757-2.412-0.441-0.666-0.914-1.426-1.399-2.288l-0.439-0.796c-0.702-1.316-1.341-2.689-1.91-4.096-0.202-0.497-0.399-1.008-0.588-1.54l-0.13-0.355c-0.181-0.517-0.354-1.048-0.523-1.595l-0.233-0.748 0.131-0.266c0.018-0.070 0.077-0.224 0.137-0.379l0.102-0.266c0.234-0.629 0.488-1.238 0.767-1.838l0.073-0.161c0.057-0.124 0.113-0.249 0.175-0.372 0.608-1.238 1.308-2.419 2.080-3.504l0.712 0.29-0.606-0.436c0.087-0.119 0.178-0.234 0.269-0.348l0.134-0.172 0.691 0.329-0.597-0.448c0.181-0.241 0.361-0.483 0.556-0.714l0.202-0.23c0.393-0.454 0.809-0.889 1.238-1.313 0.238-0.239 0.481-0.48 0.733-0.714 0.487-0.454 0.984-0.897 1.507-1.314l0.579-0.455c0.335-0.246 0.666-0.47 1.007-0.697 0.269-0.184 0.557-0.369 0.845-0.543 0.311-0.189 0.617-0.375 0.929-0.548l0.505-0.261c0.22-0.113 0.441-0.228 0.663-0.337l0.281-0.14c0.151-0.076 0.303-0.154 0.46-0.223 0.642-0.285 1.296-0.541 1.962-0.775 0.142-0.051 0.288-0.093 0.436-0.137l0.245-0.073c0.497-0.155 0.994-0.297 1.502-0.421 0.249-0.066 0.514-0.122 0.78-0.176 0.069-0.017 0.155-0.031 0.243-0.046l0.466-0.087c0.281-0.051 0.561-0.103 0.845-0.147l0.709-0.101c0.766-0.084 1.533-0.149 2.313-0.166l0.497-0.004c0.353 0 0.705 0.007 1.056 0.022 0.617 0.027 1.225 0.082 1.834 0.151 1.018 0.116 2.058 0.308 3.090 0.566l0.236 0.057c1.578 0.409 3.1 0.965 4.537 1.652l0.36 0.181-0.666 1.338-0.353-0.178c-1.335-0.639-2.765-1.16-4.238-1.543l-0.23-0.055c-0.975-0.245-1.95-0.423-2.903-0.532-0.57-0.066-1.145-0.118-1.726-0.142-0.332-0.015-0.66-0.022-0.991-0.022l-0.465 0.004c-0.736 0.018-1.462 0.081-2.176 0.155l-0.678 0.097c-0.246 0.037-0.511 0.088-0.777 0.136l-0.266 0.049c-0.052 0.012-0.137 0.028-0.224 0.040l-0.17 0.032c-0.257 0.054-0.496 0.105-0.733 0.166-0.49 0.119-0.956 0.252-1.419 0.399l-0.273 0.082c-0.122 0.035-0.242 0.070-0.361 0.112-0.63 0.221-1.247 0.463-1.85 0.729-0.133 0.060-0.263 0.126-0.393 0.191l-0.306 0.154c-0.206 0.1-0.415 0.21-0.623 0.318l-0.491 0.252c-0.272 0.152-0.56 0.329-0.848 0.502-0.273 0.167-0.541 0.339-0.796 0.514-0.329 0.218-0.639 0.427-0.941 0.651l-0.557 0.438c-0.484 0.385-0.953 0.805-1.411 1.232-0.239 0.221-0.466 0.448-0.694 0.676-0.405 0.403-0.796 0.808-1.166 1.235l-0.194 0.221c-0.167 0.2-0.33 0.418-0.494 0.636l-0.257 0.33c-0.076 0.094-0.152 0.189-0.224 0.288l-0.131 0.181c-0.694 0.976-1.353 2.088-1.929 3.263l-0.231 0.497c-0.264 0.566-0.5 1.141-0.721 1.728l-0.111 0.288c-0.024 0.063-0.049 0.124-0.072 0.187l0.072 0.223c0.163 0.528 0.33 1.044 0.505 1.543l0.121 0.333c0.188 0.527 0.378 1.017 0.572 1.495 0.548 1.361 1.166 2.688 1.837 3.944l0.418 0.762c0.475 0.844 0.931 1.575 1.353 2.212 0.178 0.27 0.358 0.533 0.541 0.791-0.161-1.196-0.26-2.407-0.293-3.627l-0.006-0.33c-0.024-1.345 0.006-2.513 0.093-3.567l0.342-4.144 1.121 4.005c0.121 0.43 0.249 0.845 0.378 1.257 0.196 0.618 0.397 1.223 0.605 1.804l0.077 0.224c0.826 2.229 1.81 4.322 2.949 6.276 0.588 1.012 1.148 1.868 1.631 2.559-0.134-1.027-0.223-2.077-0.263-3.142-0.028-0.673-0.051-1.35-0.037-2.012 0.012-0.842 0.057-1.677 0.126-2.5l0.361-4.34 1.105 4.213c0.324 1.238 0.715 2.476 1.196 3.783 1.502 4.084 3.291 7.065 4.609 8.943-0.052-0.403-0.098-0.824-0.14-1.265-0.066-0.679-0.129-1.359-0.152-2.026-0.025-0.637-0.022-1.267-0.012-1.892l0.015-0.545c0.007-0.255 0.017-0.511 0.028-0.765l0.027-0.36c0.049-0.806 0.121-1.622 0.221-2.424l0.441-3.523 1.015 3.403c0.154 0.511 0.312 1.009 0.475 1.491 0.105 0.314 0.215 0.611 0.324 0.91l0.21 0.574c0.154 0.412 0.318 0.816 0.484 1.211 0.314 0.742 0.629 1.445 0.953 2.106 0.394 0.812 0.791 1.559 1.178 2.243 0.221 0.385 0.436 0.749 0.648 1.095 0.269 0.434 0.527 0.839 0.775 1.21 0.228 0.34 0.441 0.64 0.642 0.92l0.094 0.13c0.231 0.314 0.405 0.546 0.559 0.742z"></path>
</svg>
